<svg xmlns="http://www.w3.org/2000/svg" width="300" height="76.135" viewBox="0 0 300 76.135">
  <g id="Group_1257" data-name="Group 1257" transform="translate(-273.577 -265.568)">
    <g id="Group_1253" data-name="Group 1253" transform="translate(273.577 267.568)">
      <path id="Path_3164" data-name="Path 3164" d="M314.864,309.12c.923,1.447,2.294,3.684,2.855,4.742,4.551,8.572,4.642,15.73,2.532,20.894-.192.471-.4.92-.619,1.352a13.861,13.861,0,0,1-5.709,6.068c-8.092,2.916-13.143-2.767-10.564-12.763a39.306,39.306,0,0,1,1.421-4.14l0,0c-3.432,11.5,8.5,14.567,7.018,1.068a35.284,35.284,0,0,0-1.572-6.934c-.126-.392-.778-1.77-1.278-2.854A51.4,51.4,0,0,1,314.864,309.12Zm-41.287-30.241c13.921,8.087,20.257,12.892,30.513,28.683l5.515-6.051C295.671,287.822,287,283.5,273.577,278.879Z" transform="translate(-273.577 -271.658)" fill="#fccb0c" fill-rule="evenodd"/>
      <path id="Path_3165" data-name="Path 3165" d="M332.181,337.122c-7.137,3.866-16.759-.032-18.943-9.336a21.166,21.166,0,0,1,.338-10.187c3.763-13.762,21.776-27.989,28.319-34.241l-11.76-.42,34.65-14.91q-6.405,17.009-12.81,34.02-1.679-6.195-3.36-12.39c-9.986,9.47-20.552,16.636-25.238,29.536-.127.348-.236.687-.335,1.022l0,0a39.311,39.311,0,0,0-1.421,4.14C319.039,334.355,324.089,340.038,332.181,337.122Z" transform="translate(-291.835 -266.603)" fill="#fecb00" fill-rule="evenodd"/>
      <path id="Path_3166" data-name="Path 3166" d="M331.977,280.427a7.534,7.534,0,1,0-7.534-7.534A7.548,7.548,0,0,0,331.977,280.427Z" transform="translate(-297.274 -265.36)" fill="#fccb0c" fill-rule="evenodd"/>
    </g>
    <g id="Group_1254" data-name="Group 1254" transform="translate(357.929 265.568)">
      <path id="Path_3167" data-name="Path 3167" d="M444.745,287.6l-6.647-8.776-1.151,1.295V287.6H433.12V267.111h3.827v7.712l6.82-7.712h4.805l-8.028,8.978,8.777,11.51Z" transform="translate(-432.257 -267.111)" fill="#fecb00"/>
      <path id="Path_3168" data-name="Path 3168" d="M464.476,285.313c0-5.5,3.338-7.481,6.589-7.481,3.223,0,6.532,1.985,6.532,7.481,0,5.467-3.28,7.453-6.532,7.453C467.785,292.767,464.476,290.781,464.476,285.313Zm9.41,0c0-3.424-1.525-4.115-2.82-4.115s-2.878.691-2.878,4.115c0,3.4,1.583,4.086,2.878,4.086S473.886,288.709,473.886,285.313Z" transform="translate(-446.865 -272.106)" fill="#fecb00"/>
      <path id="Path_3169" data-name="Path 3169" d="M500.864,282.868c-.518-1.18-1.151-1.669-2.014-1.669-.806,0-1.468.4-1.468.95,0,.518.633.748,2.187,1.295l.95.346c2.216.805,3.971,1.87,3.971,4.4,0,3.05-2.618,4.576-5.726,4.576a5.509,5.509,0,0,1-5.841-4.317l3.223-.834a2.817,2.817,0,0,0,2.7,1.784c1.007,0,1.842-.374,1.842-1.122,0-.633-.576-.921-2.014-1.467l-1.065-.4c-1.813-.691-3.942-1.583-3.942-4.173,0-2.647,2.245-4.4,5.18-4.4a5.113,5.113,0,0,1,5.237,4.2Z" transform="translate(-460.117 -272.106)" fill="#fecb00"/>
      <path id="Path_3170" data-name="Path 3170" d="M518.781,285.313c0-5.5,3.338-7.481,6.59-7.481,3.223,0,6.532,1.985,6.532,7.481,0,5.467-3.281,7.453-6.532,7.453C522.09,292.767,518.781,290.781,518.781,285.313Zm9.41,0c0-3.424-1.525-4.115-2.82-4.115s-2.878.691-2.878,4.115c0,3.4,1.583,4.086,2.878,4.086S528.191,288.709,528.191,285.313Z" transform="translate(-472.164 -272.106)" fill="#fecb00"/>
      <path id="Path_3171" data-name="Path 3171" d="M550.5,292.744l-5.209-14.589h3.971l2.993,9.237,2.964-9.237h4l-5.238,14.589Z" transform="translate(-484.514 -272.256)" fill="#fecb00"/>
      <path id="Path_3172" data-name="Path 3172" d="M573.3,285.313c0-5.5,3.338-7.481,6.59-7.481,3.223,0,6.532,1.985,6.532,7.481,0,5.467-3.28,7.453-6.532,7.453C576.612,292.767,573.3,290.781,573.3,285.313Zm9.41,0c0-3.424-1.525-4.115-2.82-4.115s-2.878.691-2.878,4.115c0,3.4,1.583,4.086,2.878,4.086S582.713,288.709,582.713,285.313Z" transform="translate(-497.565 -272.106)" fill="#fecb00"/>
      <path id="Path_3173" data-name="Path 3173" d="M448.235,328.09c-1.525,4.518-4.575,6.1-7.482,6.1-3.827,0-8.172-2.734-8.172-10.416s4.345-10.417,8.172-10.417c2.907,0,5.957,1.583,7.453,6.072l-3.654.921c-.892-2.676-2.3-3.482-3.8-3.482-1.841,0-4.287,1.18-4.287,6.906s2.446,6.906,4.316,6.906c1.5,0,2.849-.777,3.741-3.338Z" transform="translate(-432.006 -288.656)" fill="#fecb00"/>
      <path id="Path_3174" data-name="Path 3174" d="M465.876,331.883c0-5.5,3.338-7.481,6.59-7.481,3.222,0,6.532,1.985,6.532,7.481,0,5.467-3.281,7.453-6.532,7.453C469.185,339.336,465.876,337.351,465.876,331.883Zm9.41,0c0-3.424-1.525-4.115-2.82-4.115s-2.878.691-2.878,4.115c0,3.4,1.583,4.086,2.878,4.086S475.286,335.279,475.286,331.883Z" transform="translate(-447.517 -293.802)" fill="#fecb00"/>
      <path id="Path_3175" data-name="Path 3175" d="M511.686,339.164V330.79c0-2.5-1.266-3.022-2.1-3.022-.805,0-1.813.489-2.158,2.647v8.748h-3.683V330.79c0-2.5-1.266-3.022-2.1-3.022-.806,0-1.813.489-2.13,2.647v8.748h-3.683V324.575h3.511l.058,1.007a4.423,4.423,0,0,1,2.993-1.179,4.533,4.533,0,0,1,3.539,1.611,6.3,6.3,0,0,1,4.115-1.611c2.446,0,5.324,1.583,5.324,6.158v8.6Z" transform="translate(-461.473 -293.802)" fill="#fecb00"/>
      <path id="Path_3176" data-name="Path 3176" d="M539.524,345.063V324.575h3.511l.058,1.007a4.392,4.392,0,0,1,3.136-1.179c2.964,0,6.417,1.985,6.417,7.453,0,5.5-3.482,7.481-6.33,7.481a4.984,4.984,0,0,1-3.108-1.036v6.763Zm3.683-12.6c.346,2.791,1.756,3.511,2.964,3.511,1.18,0,2.762-.691,2.762-4.115,0-3.4-1.554-4.086-2.82-4.086-1.209,0-2.561.633-2.907,2.906Z" transform="translate(-481.828 -293.802)" fill="#fecb00"/>
      <path id="Path_3177" data-name="Path 3177" d="M572.2,333.121c.316,2.388,1.669,2.848,2.848,2.848a3.4,3.4,0,0,0,2.964-1.784l3.223.834a5.985,5.985,0,0,1-6.1,4.316c-3.482,0-6.734-1.985-6.734-7.424,0-5.525,3.338-7.51,6.59-7.51s6.589,1.985,6.589,7.481v1.238Zm5.438-2.936c-.432-1.985-1.611-2.417-2.647-2.417-1.065,0-2.245.489-2.705,2.417Z" transform="translate(-495.282 -293.802)" fill="#fecb00"/>
      <path id="Path_3178" data-name="Path 3178" d="M604.874,335.15a7.03,7.03,0,0,1-3.079.748c-3.108,0-4.259-2.1-4.259-4.806v-6.7h-1.5v-3.252h1.5v-4.115h3.683v4.115h3.367v3.252H601.22V330.8c0,1.5.4,1.726,1.266,1.726a7.648,7.648,0,0,0,2.158-.46Z" transform="translate(-508.158 -290.363)" fill="#fecb00"/>
      <path id="Path_3179" data-name="Path 3179" d="M617.1,334.018v-3.252H619.9v-8.086H617.1v-3.252h6.474v11.337h2.82v3.252Zm2.3-18.33a2.331,2.331,0,1,1,2.331,2.331A2.321,2.321,0,0,1,619.407,315.688Z" transform="translate(-517.971 -288.656)" fill="#fecb00"/>
      <path id="Path_3180" data-name="Path 3180" d="M645.011,335.15a7.026,7.026,0,0,1-3.079.748c-3.108,0-4.259-2.1-4.259-4.806v-6.7h-1.5v-3.252h1.5v-4.115h3.683v4.115h3.367v3.252h-3.367V330.8c0,1.5.4,1.726,1.266,1.726a7.644,7.644,0,0,0,2.158-.46Z" transform="translate(-526.857 -290.363)" fill="#fecb00"/>
      <path id="Path_3181" data-name="Path 3181" d="M657.242,334.018v-3.252h2.791v-8.086h-2.791v-3.252h6.474v11.337h2.82v3.252Zm2.3-18.33a2.331,2.331,0,1,1,2.33,2.331A2.321,2.321,0,0,1,659.544,315.688Z" transform="translate(-536.67 -288.656)" fill="#fecb00"/>
      <path id="Path_3182" data-name="Path 3182" d="M679.529,339.314l-5.208-14.589h3.971l2.993,9.237,2.964-9.237h4l-5.237,14.589Z" transform="translate(-544.627 -293.952)" fill="#fecb00"/>
      <path id="Path_3183" data-name="Path 3183" d="M706.134,333.121c.317,2.388,1.669,2.848,2.849,2.848a3.405,3.405,0,0,0,2.964-1.784l3.223.834a5.985,5.985,0,0,1-6.1,4.316c-3.482,0-6.734-1.985-6.734-7.424,0-5.525,3.338-7.51,6.589-7.51s6.59,1.985,6.59,7.481v1.238Zm5.439-2.936c-.432-1.985-1.611-2.417-2.648-2.417-1.064,0-2.244.489-2.7,2.417Z" transform="translate(-557.679 -293.802)" fill="#fecb00"/>
      <path id="Path_3184" data-name="Path 3184" d="M740.427,339.164V330.79c0-2.5-1.122-3.022-1.986-3.022-.921,0-2.043.6-2.359,2.647v8.748H732.4V324.575h3.51l.058,1.007a4.179,4.179,0,0,1,2.907-1.179c2.3,0,5.237,1.583,5.237,6.158v8.6Z" transform="translate(-571.685 -293.802)" fill="#fecb00"/>
      <path id="Path_3185" data-name="Path 3185" d="M763.512,333.121c.317,2.388,1.669,2.848,2.849,2.848a3.405,3.405,0,0,0,2.964-1.784l3.223.834a5.985,5.985,0,0,1-6.1,4.316c-3.481,0-6.733-1.985-6.733-7.424,0-5.525,3.338-7.51,6.589-7.51s6.589,1.985,6.589,7.481v1.238Zm5.439-2.936c-.432-1.985-1.611-2.417-2.648-2.417-1.065,0-2.244.489-2.7,2.417Z" transform="translate(-584.41 -293.802)" fill="#fecb00"/>
      <path id="Path_3186" data-name="Path 3186" d="M796.209,329.438c-.518-1.18-1.151-1.669-2.015-1.669-.805,0-1.467.4-1.467.95,0,.518.633.748,2.187,1.295l.95.346c2.216.805,3.971,1.87,3.971,4.4,0,3.05-2.619,4.575-5.726,4.575a5.51,5.51,0,0,1-5.842-4.316l3.223-.834a2.818,2.818,0,0,0,2.7,1.784c1.007,0,1.842-.374,1.842-1.122,0-.633-.575-.921-2.014-1.468l-1.065-.4c-1.813-.691-3.942-1.583-3.942-4.173,0-2.647,2.244-4.4,5.179-4.4a5.113,5.113,0,0,1,5.238,4.2Z" transform="translate(-597.712 -293.802)" fill="#fecb00"/>
      <path id="Path_3187" data-name="Path 3187" d="M821.531,329.438c-.518-1.18-1.151-1.669-2.014-1.669-.805,0-1.467.4-1.467.95,0,.518.633.748,2.187,1.295l.95.346c2.216.805,3.971,1.87,3.971,4.4,0,3.05-2.619,4.575-5.726,4.575a5.509,5.509,0,0,1-5.842-4.316l3.223-.834a2.817,2.817,0,0,0,2.7,1.784c1.007,0,1.842-.374,1.842-1.122,0-.633-.575-.921-2.014-1.468l-1.064-.4c-1.813-.691-3.942-1.583-3.942-4.173,0-2.647,2.244-4.4,5.179-4.4a5.112,5.112,0,0,1,5.237,4.2Z" transform="translate(-609.509 -293.802)" fill="#fecb00"/>
      <path id="Path_3188" data-name="Path 3188" d="M441.547,367.179c-.259-2.561-1.3-3.741-2.935-3.741a2.408,2.408,0,0,0-2.676,2.216c0,1.468,1.352,2.015,2.475,2.446l2.849,1.122c2.389.95,4.4,2.244,4.4,5.438,0,3.971-3.079,6.1-6.906,6.1-4.23,0-7.251-2.618-7.251-6.935l3.453-.748c.287,2.619,1.467,4.173,3.74,4.173,1.468,0,3.079-.633,3.079-2.36,0-1.554-1.352-2.072-2.964-2.7l-2.676-1.065c-2.475-.978-4.057-2.417-4.057-5.179,0-3.8,2.964-6.014,6.589-6.014,3.8,0,6.331,2.417,6.331,6.5Z" transform="translate(-431.504 -310.352)" fill="#fecb00"/>
      <path id="Path_3189" data-name="Path 3189" d="M469.592,381.72a7.029,7.029,0,0,1-3.079.748c-3.107,0-4.259-2.1-4.259-4.806v-6.7h-1.5v-3.252h1.5v-4.115h3.683v4.115H469.3v3.252h-3.367v6.417c0,1.5.4,1.726,1.266,1.726a7.648,7.648,0,0,0,2.158-.46Z" transform="translate(-445.133 -312.059)" fill="#fecb00"/>
      <path id="Path_3190" data-name="Path 3190" d="M490.959,385.733l-.058-1.007a4.629,4.629,0,0,1-3.194,1.179c-2.3,0-5.237-1.583-5.237-6.158v-8.776h3.683v8.546c0,2.532,1.122,3.022,2.043,3.022.95,0,2.244-.518,2.589-2.647v-8.748h3.683v14.589Z" transform="translate(-455.248 -315.498)" fill="#fecb00"/>
      <path id="Path_3191" data-name="Path 3191" d="M519.906,380.739l-.058-1.007a4.392,4.392,0,0,1-3.136,1.179c-2.964,0-6.388-1.985-6.388-7.453,0-5.5,3.453-7.481,6.3-7.481a4.981,4.981,0,0,1,3.108,1.036v-6.762h3.683v20.488Zm-.173-7.884c-.346-2.791-1.756-3.511-2.964-3.511-1.18,0-2.734.691-2.734,4.115,0,3.4,1.525,4.086,2.791,4.086,1.209,0,2.561-.633,2.907-2.906Z" transform="translate(-468.225 -310.503)" fill="#fecb00"/>
      <path id="Path_3192" data-name="Path 3192" d="M541.062,391.783l2.417-6.82L538.5,371.295h3.971l2.906,8.8,2.935-8.8h3.971L544.8,391.783Z" transform="translate(-481.352 -315.648)" fill="#fecb00"/>
    </g>
  </g>
</svg>
