<svg xmlns="http://www.w3.org/2000/svg" viewBox="0 0 90.92 89.73"><defs><style>.cls-1{fill:#fccb0c;}.cls-1,.cls-2{fill-rule:evenodd;}.cls-2{fill:#005490;}</style></defs><g id="Layer_2" data-name="Layer 2"><g id="Layer_1-2" data-name="Layer 1"><path class="cls-1" d="M51.45,46.69c1.16,1.8,2.86,4.59,3.56,5.91,5.67,10.68,5.79,19.6,3.16,26-.24.59-.5,1.15-.77,1.68a17.33,17.33,0,0,1-7.12,7.57C40.2,91.52,33.9,84.44,37.12,72a47.42,47.42,0,0,1,1.77-5.16h0C34.62,81.14,49.48,85,47.64,68.15a43.88,43.88,0,0,0-2-8.64c-.16-.49-1-2.21-1.59-3.56A64.5,64.5,0,0,1,51.45,46.69ZM0,9C17.35,19.08,25.25,25.07,38,44.75L44.9,37.2C27.54,20.14,16.73,14.76,0,9Z"/><path class="cls-2" d="M50.28,87.89c-8.89,4.82-20.88,0-23.6-11.64a26.29,26.29,0,0,1,.42-12.7C31.79,46.4,54.24,28.67,62.39,20.88l-14.66-.52L90.92,1.78,75,44.17q-2.08-7.71-4.19-15.44C58.32,40.53,45.15,49.46,39.31,65.54c-.16.44-.29.86-.42,1.28h0A47.42,47.42,0,0,0,37.12,72C33.9,84.44,40.2,91.52,50.28,87.89Z"/><path class="cls-1" d="M43.25,18.78a9.39,9.39,0,1,0-9.39-9.39A9.41,9.41,0,0,0,43.25,18.78Z"/></g></g></svg>