<svg xmlns="http://www.w3.org/2000/svg" width="28.928" height="27" viewBox="0 0 28.928 27">
  <g id="person-add-outline" transform="translate(-31 -47)">
    <path id="Path_4893" data-name="Path 4893" d="M210.312,53.769c-.236,3.177-2.644,5.769-5.288,5.769s-5.057-2.591-5.288-5.769a5.308,5.308,0,1,1,10.577,0Z" transform="translate(-157.639)" fill="none" stroke="#005293" stroke-linecap="round" stroke-linejoin="round" stroke-width="2"/>
    <path id="Path_4894" data-name="Path 4894" d="M107.528,304c-5.228,0-10.535,2.885-11.517,8.329a1.009,1.009,0,0,0,.941,1.286h21.153a1.01,1.01,0,0,0,.94-1.286C118.063,306.885,112.757,304,107.528,304Z" transform="translate(-60.144 -240.615)" fill="none" stroke="#005293" stroke-miterlimit="10" stroke-width="2"/>
    <path id="Path_4895" data-name="Path 4895" d="M35.365,176v6.731m3.365-3.365H32" transform="translate(0 -120.308)" fill="none" stroke="#005293" stroke-linecap="round" stroke-linejoin="round" stroke-width="2"/>
  </g>
</svg>
