<svg xmlns="http://www.w3.org/2000/svg" xmlns:xlink="http://www.w3.org/1999/xlink" width="15.949" height="18" viewBox="0 0 15.949 18">
  <defs>
    <clipPath id="clip-path">
      <path id="Path_947" data-name="Path 947" d="M7.975-18a5.674,5.674,0,0,1,5.65,5.16l.407,4.476a1.139,1.139,0,0,0,.625.916l0,0a2.332,2.332,0,0,1,1.289,2.086v.348A2.051,2.051,0,0,1,13.9-2.962H10.481v.457a2.506,2.506,0,0,1-2.342,2.5L7.975,0A2.506,2.506,0,0,1,5.468-2.506h0v-.457H2.051A2.051,2.051,0,0,1,0-5.013v-.348A2.332,2.332,0,0,1,1.289-7.447l0,0a1.139,1.139,0,0,0,.625-.916l.407-4.476A5.674,5.674,0,0,1,7.975-18ZM9.113-2.963H6.835v.457A1.139,1.139,0,0,0,7.851-1.374l.124.007A1.139,1.139,0,0,0,9.114-2.506h0ZM7.975-16.633a4.306,4.306,0,0,0-4.289,3.917L3.279-8.24A2.506,2.506,0,0,1,1.9-6.226a.967.967,0,0,0-.537.865v.348a.684.684,0,0,0,.684.684H13.9a.684.684,0,0,0,.684-.684v-.348a.965.965,0,0,0-.534-.863A2.508,2.508,0,0,1,12.67-8.24l-.407-4.476A4.306,4.306,0,0,0,7.975-16.633Z" fill="none"/>
    </clipPath>
    <clipPath id="clip-path-2">
      <path id="Path_946" data-name="Path 946" d="M-323,299H344V-448H-323Z" fill="none"/>
    </clipPath>
  </defs>
  <g id="Group_1867" data-name="Group 1867" transform="translate(0 18)">
    <g id="Group_1866" data-name="Group 1866" clip-path="url(#clip-path)">
      <g id="Group_1865" data-name="Group 1865" clip-path="url(#clip-path-2)">
        <path id="Path_945" data-name="Path 945" d="M-1-19H16.949V1H-1Z" fill="#131124"/>
      </g>
    </g>
  </g>
</svg>
