<svg id="Group_1493" data-name="Group 1493" xmlns="http://www.w3.org/2000/svg" width="124.248" height="36.265" viewBox="0 0 124.248 36.265">
  <path id="Path_4818" data-name="Path 4818" d="M160.93,664.707V651.99h-6.336v12.718H138.569v6.34h16.024v12.818h6.345V671.049h28.5v-6.342Z" transform="translate(-138.569 -651.989)" fill="#ffd600"/>
  <path id="Path_4819" data-name="Path 4819" d="M138.569,668.767v12.818h16.024V668.767Z" transform="translate(-138.569 -649.709)" fill="#005b96"/>
  <rect id="Rectangle_2810" data-name="Rectangle 2810" width="16.024" height="12.718" transform="translate(0 0)" fill="#005b96"/>
  <rect id="Rectangle_2811" data-name="Rectangle 2811" width="28.501" height="12.826" transform="translate(22.369 19.051)" fill="#005b96"/>
  <rect id="Rectangle_2812" data-name="Rectangle 2812" width="28.509" height="12.718" transform="translate(22.361 0)" fill="#005b96"/>
  <path id="Path_4820" data-name="Path 4820" d="M190.937,657.093a2.42,2.42,0,0,1-1.832-2.356,2.753,2.753,0,0,1,3-2.748,2.686,2.686,0,0,1,2.855,2.855l-1.32.31c-.135-1.226-.7-1.778-1.562-1.778A1.323,1.323,0,0,0,190.6,654.6c0,.808.727,1.1,1.306,1.334l1.36.538c1.2.471,2.02,1.118,2.02,2.491,0,1.777-1.4,2.774-3.165,2.774a3.032,3.032,0,0,1-3.3-3.1l1.32-.269c.161,1.239.768,1.979,1.953,1.979.821,0,1.682-.35,1.682-1.293,0-.875-.741-1.13-1.535-1.44Z" transform="translate(-131.733 -651.989)" fill="#005b96"/>
  <path id="Path_4821" data-name="Path 4821" d="M199.9,661.318l-1.078-3.4-1.066,3.4h-1.387l-1.71-6.828h1.386l1.226,4.606,1.093-3.689h.93l1.089,3.689,1.226-4.606h1.373l-1.7,6.828Z" transform="translate(-130.939 -651.649)" fill="#005b96"/>
  <path id="Path_4822" data-name="Path 4822" d="M203.48,658.379c.162,1.413.943,1.682,1.576,1.682a1.846,1.846,0,0,0,1.589-.849l1.239.324a2.77,2.77,0,0,1-2.8,1.872c-1.576,0-3.084-.929-3.084-3.475,0-2.585,1.55-3.515,3.045-3.515s3.03.93,3.03,3.5v.459Zm3.084-1.145c-.2-1.226-.916-1.469-1.481-1.469a1.6,1.6,0,0,0-1.589,1.469Z" transform="translate(-129.94 -651.658)" fill="#005b96"/>
  <path id="Path_4823" data-name="Path 4823" d="M212.674,661.648l-.053-.619a2.422,2.422,0,0,1-1.7.7c-1.361,0-2.95-.929-2.95-3.5s1.589-3.489,2.909-3.489a2.483,2.483,0,0,1,1.7.687v-3.366h1.428v9.587Zm-.094-3.879c-.175-1.185-.861-1.684-1.629-1.684-.66,0-1.522.365-1.522,2.155,0,1.764.849,2.141,1.55,2.141a1.543,1.543,0,0,0,1.6-1.414Z" transform="translate(-129.127 -651.979)" fill="#005b96"/>
  <path id="Path_4824" data-name="Path 4824" d="M215.56,658.379c.162,1.413.943,1.682,1.577,1.682a1.845,1.845,0,0,0,1.588-.849l1.239.324a2.771,2.771,0,0,1-2.8,1.872c-1.575,0-3.083-.929-3.083-3.475,0-2.585,1.548-3.515,3.043-3.515s3.03.93,3.03,3.5v.459Zm3.084-1.145c-.2-1.226-.916-1.469-1.481-1.469a1.594,1.594,0,0,0-1.588,1.469Z" transform="translate(-128.297 -651.658)" fill="#005b96"/>
  <path id="Path_4825" data-name="Path 4825" d="M224.118,661.327v-3.945c0-1.346-.674-1.617-1.156-1.617a1.354,1.354,0,0,0-1.335,1.294v4.268H220.2V654.5h1.321l.04.566a2.375,2.375,0,0,1,1.576-.646c1.077,0,2.41.741,2.41,2.842v4.066Z" transform="translate(-127.464 -651.658)" fill="#005b96"/>
  <path id="Path_4826" data-name="Path 4826" d="M191.99,674.284c-1.689-.679-2.984-1.688-2.984-3.839,0-2.808,2.173-4.476,4.894-4.476a4.376,4.376,0,0,1,4.651,4.652l-2.151.5c-.219-2-1.141-2.9-2.545-2.9a2.156,2.156,0,0,0-2.414,1.995c0,1.317,1.185,1.8,2.129,2.173l2.215.877c1.953.768,3.292,1.821,3.292,4.059,0,2.9-2.282,4.519-5.156,4.519-3.093,0-5.354-1.886-5.376-5.045l2.151-.44c.264,2.019,1.251,3.225,3.182,3.225,1.337,0,2.741-.57,2.741-2.105,0-1.427-1.205-1.844-2.5-2.348Z" transform="translate(-131.77 -650.087)" fill="#005b96"/>
  <path id="Path_4827" data-name="Path 4827" d="M209.432,676.378c.265,2.3,1.537,2.742,2.567,2.742a3.009,3.009,0,0,0,2.589-1.383l2.018.527a4.509,4.509,0,0,1-4.563,3.049c-2.566,0-5.024-1.513-5.024-5.66,0-4.212,2.523-5.727,4.958-5.727s4.937,1.514,4.937,5.7v.746Zm5.025-1.864c-.329-2-1.493-2.391-2.414-2.391a2.6,2.6,0,0,0-2.588,2.391Z" transform="translate(-129.257 -649.549)" fill="#005b96"/>
  <path id="Path_4828" data-name="Path 4828" d="M223.055,681.73V679.6h2.238v-6.867h-2.238v-2.128h4.519v9h2.238v2.129Zm3.356-12.55a1.638,1.638,0,0,1,0-3.27,1.636,1.636,0,0,1,0,3.27Z" transform="translate(-127.076 -650.095)" fill="#005b96"/>
  <path id="Path_4829" data-name="Path 4829" d="M236.827,680.219a3.85,3.85,0,0,1-2.7,1.1c-2.215,0-4.8-1.513-4.8-5.7,0-4.169,2.589-5.684,4.782-5.684a3.974,3.974,0,0,1,2.788,1.163l.065-1.032h2.194v11.124a4.518,4.518,0,0,1-4.85,4.629,4.353,4.353,0,0,1-4.518-3.05l2.018-.526a3.013,3.013,0,0,0,2.589,1.382,2.249,2.249,0,0,0,2.437-2.436Zm0-5.355c-.286-1.93-1.405-2.741-2.655-2.741-1.076,0-2.48.614-2.48,3.509,0,2.875,1.383,3.489,2.523,3.489a2.516,2.516,0,0,0,2.612-2.3Z" transform="translate(-126.223 -649.549)" fill="#005b96"/>
  <path id="Path_4830" data-name="Path 4830" d="M241.643,676.378c.264,2.3,1.537,2.742,2.566,2.742a3.008,3.008,0,0,0,2.589-1.383l2.019.527a4.51,4.51,0,0,1-4.564,3.049c-2.566,0-5.025-1.513-5.025-5.66,0-4.212,2.524-5.727,4.959-5.727s4.936,1.514,4.936,5.7v.746Zm5.024-1.864c-.328-2-1.492-2.391-2.413-2.391a2.6,2.6,0,0,0-2.589,2.391Z" transform="translate(-124.876 -649.549)" fill="#005b96"/>
  <path id="Path_4831" data-name="Path 4831" d="M222.927,670.083a4.642,4.642,0,0,0-1.074-.152,4.08,4.08,0,0,0-2.655,1.4l-.087-1.271h-2.172v11.122h2.324v-6.428c.308-1.777,1.384-2.369,2.369-2.369a7.344,7.344,0,0,1,1.3.175Z" transform="translate(-127.908 -649.548)" fill="#005b96"/>
  <path id="Path_4832" data-name="Path 4832" d="M202,681.168l-3.95-11.124h2.411l2.679,7.927,2.684-7.927h2.407l-3.95,11.124Z" transform="translate(-130.478 -649.533)" fill="#005b96"/>
</svg>
